<?xml version="1.0" encoding="UTF-8"?>
<svg width="752pt" height="752pt" version="1.1" viewBox="0 0 752 752" xmlns="http://www.w3.org/2000/svg">
 <defs>
  <clipPath id="a">
   <path d="m139.21 432h83.789v92h-83.789z"/>
  </clipPath>
 </defs>
 <path d="m257.61 524c-27.195 0.007812-52.898-12.445-69.746-33.801-16.844-21.352-22.977-49.246-16.637-75.695s24.453-48.531 49.148-59.93l322.63-148.88-0.003906 0.003906c3.3398-1.5625 7.1445-1.8203 10.664-0.72656 3.5195 1.0938 6.5039 3.4648 8.3711 6.6445l44.398 76.957c1.8633 3.2305 2.4414 7.0508 1.6133 10.688-0.82812 3.6406-3.0039 6.832-6.0859 8.9375l-120.76 82.285c-4.3672 2.8047-9.8867 3.1133-14.539 0.82031-4.6562-2.2969-7.7695-6.8633-8.2031-12.035-0.4375-5.1719 1.8711-10.195 6.0781-13.234l109.52-74.59-30.781-53.277-310.52 143.32c-16.445 7.6133-28.496 22.336-32.707 39.961-4.2148 17.625-0.12109 36.207 11.102 50.434 11.227 14.223 28.348 22.523 46.469 22.527 11.98-0.027344 23.688-3.6133 33.625-10.301l35.016-23.855v-0.003907c3.2383-2.3398 7.2852-3.2695 11.223-2.582 3.9336 0.69141 7.4219 2.9414 9.6758 6.2422 2.25 3.3047 3.0703 7.375 2.2695 11.289-0.79687 3.9141-3.1406 7.3438-6.5039 9.5l-35.223 24.004c-14.828 9.9141-32.246 15.234-50.082 15.305z"/>
 <path d="m420.4 553.59c-27.473 0-53.824-10.914-73.254-30.344-19.426-19.426-30.34-45.777-30.34-73.25 0-27.477 10.914-53.828 30.34-73.254 19.43-19.43 45.781-30.344 73.254-30.344 27.477 0 53.828 10.914 73.254 30.344 19.43 19.426 30.344 45.777 30.344 73.254 0 27.473-10.914 53.824-30.344 73.25-19.426 19.43-45.777 30.344-73.254 30.344zm0-177.59c-19.625 0-38.445 7.7969-52.324 21.676-13.875 13.875-21.672 32.699-21.672 52.324s7.7969 38.445 21.672 52.32c13.879 13.879 32.699 21.676 52.324 21.676s38.449-7.7969 52.324-21.676c13.879-13.875 21.676-32.695 21.676-52.32s-7.7969-38.449-21.676-52.324c-13.875-13.879-32.699-21.676-52.324-21.676z"/>
 <path d="m420.4 494.4c-11.773 0-23.066-4.6797-31.395-13.004-8.3242-8.3281-13.004-19.621-13.004-31.395 0-11.777 4.6797-23.07 13.004-31.395 8.3281-8.3281 19.621-13.004 31.395-13.004 11.777 0 23.07 4.6758 31.395 13.004 8.3281 8.3242 13.004 19.617 13.004 31.395 0 11.773-4.6758 23.066-13.004 31.395-8.3242 8.3242-19.617 13.004-31.395 13.004zm0-59.199c-3.9258 0-7.6875 1.5586-10.465 4.3359-2.7734 2.7734-4.332 6.5391-4.332 10.465 0 3.9219 1.5586 7.6875 4.332 10.465 2.7773 2.7734 6.5391 4.332 10.465 4.332 3.9258 0 7.6914-1.5586 10.465-4.332 2.7773-2.7773 4.3359-6.543 4.3359-10.465 0-3.9258-1.5586-7.6914-4.3359-10.465-2.7734-2.7773-6.5391-4.3359-10.465-4.3359z"/>
 <path d="m280.1 357.95c-2.6367 0-5.2305-0.70312-7.5039-2.043-2.2734-1.3359-4.1484-3.2578-5.4297-5.5625l-11.84-21.312c-6.168-11.293-16.371-19.844-28.57-23.938-12.203-4.0938-25.496-3.4297-37.23 1.8594-4.75 1.7031-10.043 0.87109-14.039-2.2148-4-3.0859-6.1484-7.9961-5.6992-13.023 0.44531-5.0273 3.4219-9.4844 7.8984-11.816 18.477-8.2969 39.402-9.3242 58.605-2.8789 19.199 6.4453 35.266 19.891 44.992 37.656l11.84 21.281c2.5469 4.5859 2.4805 10.176-0.17969 14.695-2.6562 4.5234-7.5117 7.2969-12.754 7.2969z"/>
 <g clip-path="url(#a)">
  <path d="m183.61 524c-13.168-0.015625-25.645-5.875-34.07-15.992-8.4219-10.121-11.922-23.457-9.5469-36.406 2.3711-12.949 10.367-24.18 21.832-30.656l15.066-8.5547 14.621 25.723-15.094 8.582c-3.4258 1.9219-5.9453 5.1289-7.0039 8.9062-1.0586 3.7812-0.57422 7.8281 1.3477 11.25 1.9102 3.3359 5.0234 5.8086 8.707 6.9102 3.6797 1.1016 7.6406 0.74609 11.066-0.98828l20.48-11.84h3.9688v15.066l7.2812 12.551-16.871 9.7695v-0.003906c-6.625 3.8008-14.148 5.7656-21.785 5.6836z"/>
 </g>
</svg>
