<?xml version="1.0" encoding="UTF-8"?>
<svg width="752pt" height="752pt" version="1.1" viewBox="0 0 752 752" xmlns="http://www.w3.org/2000/svg">
 <defs>
  <clipPath id="a">
   <path d="m139.21 233h469.79v321h-469.79z"/>
  </clipPath>
 </defs>
 <path d="m420.4 376c-27.473 0-53.824 10.914-73.254 30.344-19.426 19.43-30.34 45.777-30.34 73.254 0 27.477 10.914 53.824 30.34 73.254 19.43 19.426 45.781 30.34 73.254 30.34 27.477 0 53.828-10.914 73.254-30.34 19.43-19.43 30.344-45.777 30.344-73.254 0-27.477-10.914-53.824-30.344-73.254-19.426-19.43-45.777-30.344-73.254-30.344zm0 133.2c-7.8477 0-15.379-3.1172-20.93-8.668-5.5508-5.5508-8.668-13.078-8.668-20.93 0-7.8516 3.1172-15.379 8.668-20.93s13.082-8.668 20.93-8.668c7.8516 0 15.379 3.1172 20.93 8.668s8.6719 13.078 8.6719 20.93c0 7.8516-3.1211 15.379-8.6719 20.93-5.5508 5.5508-13.078 8.668-20.93 8.668z"/>
 <g clip-path="url(#a)">
  <path d="m606.31 318.25-44.398-76.957c-1.8633-3.1797-4.8477-5.5508-8.3672-6.6445-3.5234-1.0938-7.3242-0.83594-10.664 0.72656l-256.47 118.39-5.1211-9.5312c-9.7305-17.762-25.801-31.199-45-37.641-19.199-6.4414-40.121-5.4062-58.598 2.8906-4.7031 2.2227-7.8945 6.75-8.4062 11.93-0.51172 5.1758 1.7344 10.242 5.9102 13.34 4.1797 3.1016 9.6797 3.7773 14.484 1.7852 11.727-5.25 24.996-5.8906 37.172-1.8008 12.176 4.0938 22.363 12.617 28.539 23.879l4.1445 7.4883-39.129 18.055v0.003906c-15.406 7.1055-28.449 18.477-37.59 32.766-9.1445 14.289-14.004 30.898-14.004 47.859 0 0.59375 0.14844 1.125 0.17578 1.6875l-7.1641 4.0547h0.003907c-11.465 6.4766-19.461 17.707-21.832 30.656-2.375 12.953 1.125 26.285 9.5469 36.406 8.4258 10.117 20.902 15.977 34.07 15.992 7.7109 0.035156 15.289-2.0078 21.934-5.918l9.5312-5.5039v-0.003906c12.973 7.3672 27.613 11.301 42.531 11.426 15.934-0.11719 31.551-4.457 45.258-12.578-10.141-18.895-15.516-39.977-15.66-61.418-0.15234-36.473 14.719-71.402 41.117-96.57 26.402-25.168 61.996-38.359 98.422-36.469 36.426 1.8906 70.465 18.695 94.117 46.461l80.98-55.141c3.082-2.1055 5.2539-5.2969 6.0859-8.9375 0.82812-3.6367 0.25-7.457-1.6172-10.688z"/>
 </g>
</svg>
